# xmcd
#
# Track frame offsets:
#	150
#	19070
#	37156
#	47967
#	61918
#	74085
#	94064
#	111291
#	123280
#	135221
#	145201
#
# Disc length: 2112 seconds
#
# Revision: 0
# Processed by: cddbd v1.5.2PL0 Copyright (c) Steve Scherf et al.
# Submitted via: EasyCDDAExtractor 12.0.5.1
#
DISCID=a0083e0b
DTITLE=Bryn Jones - Bug Jam Ballistic
DYEAR=2006
DGENRE=Blues
TTITLE0=Bug Jam Ballistic
TTITLE1=Röma
TTITLE2=I Want You Tonight
TTITLE3=Ruby
TTITLE4=Extra Mile
TTITLE5=Girl On My Arm
TTITLE6=Song For A Clown
TTITLE7=Make me Blue
TTITLE8=Rattlin' Ramblin' Lonesome
TTITLE9=Red Eye Station
TTITLE10=Talking Koskenkorva Blues
EXTD=
EXTT0=
EXTT1=
EXTT2=
EXTT3=
EXTT4=
EXTT5=
EXTT6=
EXTT7=
EXTT8=
EXTT9=
EXTT10=
PLAYORDER=
